<svg xmlns="http://www.w3.org/2000/svg" viewBox="0 0 324.41 324.41">
  <defs/>
  <path fill="#fff" d="M324.41 118.36V0H0v324.41h324.41V118.36z" class="cmcls-1"/>
  <path d="M5.2 5.2h314.01v314.01H5.2z" class="cmcls-1"/>
  <path fill="#0591d1" d="M5.1999998 5.1999998h314.01001v314.01001H5.1999998z" class="cmcls-2"/>
  <rect height="118.36" x="324.41" class="cmcls-1"/>
  <path fill="#fff" d="M160.53 234.7h9.31v44.16h-9.31zM229.73 233.49a23.3 23.3 0 1023.38 23.3 23.12 23.12 0 00-23.38-23.3zm0 37.29a14 14 0 1113.81-14 13.6 13.6 0 01-13.81 14zM189.3 265.64V234.7H180v31.94c0 8.3 4.75 12.23 13.76 12.23h11.93v-9.14H194c-3.42 0-4.7-.91-4.7-4.09zM259.35 278.87h9.31v-35h10.71c3.89 0 7 2 7 6.3 0 4.06-2.56 5.69-5.64 7a21.94 21.94 0 00-2.54 1.26c-2.71 1.68-3.17 4.92-.94 7.94l9.52 12.53H299l-12-14.8c6.23-3.14 9.19-7.22 9.19-14.24 0-9.65-6.26-15.16-16.55-15.16h-20.29zM52 280.08c8.72 0 14.93-3.3 19.42-8.37l-6.7-5.71c-3.78 3.47-7.29 5.09-12.59 5.09-6.69 0-13-3.43-14.19-10.19h35.41c.09-1.52.18-2.45.18-3.39 0-12.85-7.64-24-22.75-24-13.58 0-23.2 10.57-23.2 23.34 0 13.76 10.61 23.23 24.42 23.23zm-1.26-37.49c7.19 0 11.78 4.43 12.51 10.84H37.79c1.01-6.75 6.32-10.84 12.9-10.84zM140.43 253.22c-5.59-1.95-10.83-3.75-10.83-6.69 0-2.05 2.16-4.12 5.72-4.12 3.76 0 8.74 1.79 12.76 4.13l4.13-7.79a30.37 30.37 0 00-16.53-5.2c-8.94 0-16 4.91-16 13.81 0 6.12 5.57 10.24 12.93 12.44 5.8 1.79 10.91 3.43 10.91 6.72 0 2.39-2.22 4.67-6.54 4.67a26.39 26.39 0 01-15.13-5.44l-4.66 7.74a33.47 33.47 0 0019.1 6.53c9.6 0 16.95-4.12 16.95-14.11-.04-6.79-5.59-10.24-12.81-12.69zM100.42 253.22c-5.59-1.95-10.83-3.75-10.83-6.69 0-2.05 2.16-4.12 5.72-4.12 3.76 0 8.73 1.79 12.76 4.13l4.13-7.79a30.4 30.4 0 00-16.54-5.2c-8.93 0-16 4.91-16 13.81 0 6.12 5.57 10.24 12.93 12.44 5.8 1.79 10.9 3.43 10.9 6.72 0 2.39-2.21 4.67-6.53 4.67a26.39 26.39 0 01-15.13-5.44l-4.66 7.74A33.47 33.47 0 0096.24 280c9.59 0 17-4.12 17-14.11-.05-6.77-5.6-10.22-12.82-12.67zM162.21 188.18c49.76 0 93.24-28.05 116.73-69.82C255.45 76.600001 212 48.54 162.21 48.54c-49.79 0-93.21 28.060001-116.74 69.82 23.53 41.77 66.97 69.82 116.74 69.82zm0-123.349999a53.18 53.180003 0 0137.85 15.68 97.87 97.870005 0 016.7 7.47L169.34 125.5a10.090414 10.090414 0 11-14.27-14.27l22.5-22.499998A33.39 33.390002 0 10195.15 123.26h20.33a53.52 53.520002 0 11-53.27-58.429999z" class="cmcls-1"/>
</svg>
