<svg id="Layer_1" data-name="Layer 1" xmlns="http://www.w3.org/2000/svg" viewBox="0 0 1728 468"><defs><style>.cls-1{fill:#71c900;}.cls-2{font-size:200px;fill:#e97600;font-family:CenturyGothic, Century Gothic;}.cls-3,.cls-4{fill:none;stroke:#71c900;stroke-miterlimit:10;}.cls-3{stroke-width:12px;}.cls-4{stroke-width:14.7px;}</style></defs><title>optikaminusplus-logo-line</title><path class="cls-1" d="M140.06,179.19h14.69v21q8.72-12,20-18a53.27,53.27,0,0,1,25.28-6q24.33,0,41.63,17.53A57.89,57.89,0,0,1,259,236q0,25.2-17.15,42.78t-41.37,17.58a55.64,55.64,0,0,1-25.07-5.67,63,63,0,0,1-20.66-16.9v61.42H140.06Zm58.78,11.23q-19.05,0-32.1,13.32t-13,33.13a47,47,0,0,0,5.82,23.39,42.38,42.38,0,0,0,16.65,16.46,46.12,46.12,0,0,0,22.88,6.08,43.17,43.17,0,0,0,22.26-6.13,45,45,0,0,0,16.6-17.15,46.31,46.31,0,0,0,.05-46.14,44.25,44.25,0,0,0-39.12-23Z"/><path class="cls-1" d="M307.91,136.77h14.7v42.42h23.3v12.7h-23.3V293.4h-14.7V191.89H287.86v-12.7h20.05Z"/><path class="cls-1" d="M381.65,132.15a12.13,12.13,0,0,1,0,24.25,12.14,12.14,0,0,1-12-12.07,11.75,11.75,0,0,1,3.55-8.61A11.59,11.59,0,0,1,381.65,132.15Zm-7.3,47h14.7V293.4h-14.7Z"/><polygon class="cls-1" points="428.1 135.09 442.79 135.09 442.79 225.28 495.75 179.19 517.33 179.19 454.55 233.67 521 293.4 500.32 293.4 442.79 241.98 442.79 293.4 428.1 293.4 428.1 135.09"/><path class="cls-1" d="M658.52,179.19V293.4H644V273.77a62.89,62.89,0,0,1-20.73,16.9,56.06,56.06,0,0,1-25.14,5.67q-24.25,0-41.42-17.58T539.58,236a57.86,57.86,0,0,1,17.32-42.2q17.33-17.53,41.68-17.53a53.86,53.86,0,0,1,25.45,6,57.88,57.88,0,0,1,20,18v-21Zm-58.74,11.23a44.31,44.31,0,0,0-39.16,23,46.31,46.31,0,0,0,0,46.14,45,45,0,0,0,16.62,17.15,43.44,43.44,0,0,0,22.39,6.13,45.93,45.93,0,0,0,22.86-6.08,42.57,42.57,0,0,0,16.62-16.46A47,47,0,0,0,645,236.87q0-19.81-13.06-33.13T599.78,190.42Z"/><text class="cls-2" transform="translate(738.47 293.38)">minus plus</text><circle class="cls-3" cx="148" cy="238" r="124"/><line class="cls-4" x1="435.45" y1="137" x2="435.45" y2="18.5"/><line class="cls-4" x1="147.4" y1="449.5" x2="147.4" y2="333"/></svg>